<svg xmlns="http://www.w3.org/2000/svg" xml:space="preserve" viewBox="0 0 3176 1210.56">
  <defs>
    <clipPath id="a" clipPathUnits="userSpaceOnUse">
      <path d="M0 0h9921.88v3781.25H0Z" clip-rule="evenodd"/>
    </clipPath>
  </defs>
  <g clip-path="url(#a)" transform="matrix(.32 0 0 .32 0 0)">
    <g fill="#a80c35">
      <path d="m2586.3 1002.77-410.13-246.81 309.09-481.73-386.36 434.15-112.94-68.4 35.66-92.18-270.45 371.7-77.27 493.62-32.7 220.05-199.12 74.34-558.73 20.82-83.22 130.83 118.88 202.2 92.13 889.12 109.97-431.18 294.23 371.7-202.1-585.8 362.58-252.75 359.62-29.74 359.6 478.75 219.94 294.39-249.65-553.1-29.72-300.32 178.32-163.55 326.92 333.04-208.04-440.1-219.93 8.93-285.31-609.6 531.99 8.93Z"/>
      <path d="m538.6 1612.35-160.5 77.32-104.01-145.7 20.8 187.33 166.43 92.18 216.96-89.2 205.07-5.95-169.4-139.76z"/>
    </g>
    <path d="m5116.9 2364.45-481.21-741.99-260.37 323.31v418.68h-209.23V736.26h209.23v886.2l722.99-886.2h253.4l-574.22 711.75L5361 2364.45h-244.1Zm727.64-200.04h688.12l-13.95 200.04h-883.4V736.26h209.23v1428.15zm1917.9 0 13.95 200.04h-990.33V736.26h943.83l16.28 200.04h-750.89v397.74h509.12v200.03h-509.12v630.34h767.16zm316.16 200.04V736.26h209.23v1628.19zm511.44-169.8c102.3 95.37 313.84 193.06 525.39 193.06 325.46 0 532.36-167.47 532.36-430.3 0-214-102.29-339.6-455.64-539.63-269.67-155.85-334.76-207.02-334.76-309.36 0-109.32 102.28-195.38 274.31-195.38 99.97 0 232.48 44.2 309.2 93.04l111.58-167.47c-109.26-72.1-281.3-125.6-418.45-125.6-299.9 0-499.82 172.12-499.82 397.74 0 200.03 99.97 300.05 406.83 467.52 272 148.86 383.58 258.18 383.58 376.8 0 139.56-120.89 223.3-309.19 223.3-162.73 0-325.46-76.76-406.83-151.19zM4447 2714.13h-114.83v345.84h-50.67v-345.84h-115.4l3.37-48.44h274.16Zm486.8 297.4 3.38 48.44h-239.82V2665.7h228.56l3.94 48.44h-181.84v96.32h123.3v48.44h-123.3v152.64zm249.78-148.7c0-113.78 89.52-202.77 202.1-202.77 47.3 0 92.33 15.77 132.3 46.18l-25.33 39.43c-33.22-25.35-67.56-37.74-106.96-37.74-85.01 0-151.44 68.16-151.44 154.9 0 86.74 67 154.9 151.44 154.9 42.78 0 79.37-13.52 106.96-40l25.9 38.87c-34.35 30.98-82.76 49-132.86 49-112.6 0-202.1-89.55-202.1-202.77zm843.15-197.14h50.66v394.28h-50.66V2878.6h-195.35v181.37h-50.66V2665.7h50.66v164.47h195.35zm605.01 0h50.67v399.91h-6.2l-264.59-281.06v275.43h-50.1v-399.91h5.63l264.6 281.06V2665.7zm521.13 399.91c-112.59 0-202.1-90.12-202.1-202.77s89.51-202.77 202.1-202.77c112.6 0 202.1 90.12 202.1 202.77s-89.5 202.77-202.1 202.77zm0-48.44c85.57 0 149.75-67.02 149.75-154.33 0-87.3-64.18-154.33-149.75-154.33-86.13 0-150.3 67.02-150.3 154.33 0 87.3 64.17 154.33 150.3 154.33zm521.7-5.63h166.63l-3.38 48.44H7623.9V2665.7h50.67v345.84zm603.32 54.07c-112.6 0-202.1-90.12-202.1-202.77s89.5-202.77 202.1-202.77 202.1 90.12 202.1 202.77-89.5 202.77-202.1 202.77zm0-48.44c85.57 0 149.75-67.02 149.75-154.33 0-87.3-64.18-154.33-149.75-154.33-86.13 0-150.31 67.02-150.31 154.33 0 87.3 64.18 154.33 150.3 154.33zm797.54-185.87v193.2c-30.4 23.09-72.06 41.11-137.92 41.11-123.85 0-204.36-90.12-204.36-202.77s85.01-202.77 203.23-202.77c54.61 0 99.65 19.7 135.11 47.87l-26.46 38.3c-30.96-24.78-69.24-37.73-108.65-37.73-84.44 0-150.3 64.2-150.3 154.33 0 90.12 60.8 153.77 151.43 153.77 34.34 0 63.61-7.32 87.26-18.59V2880.3h-76l3.38-49h123.28zm572.36-165.6-139.05 219.1v175.18h-50.66v-174.61l-139.62-219.67h57.42l107.53 169.54 106.96-169.54h57.42z" fill="#a80c35"/>
  </g>
</svg>
